<svg width="70" height="70" viewBox="0 0 70 70" fill="none" xmlns="http://www.w3.org/2000/svg">
<path opacity="0.5" d="M31.8398 3.82031C33.5921 2.09184 36.4079 2.09184 38.1602 3.82031L42.3916 7.99512C43.5304 9.1185 45.1018 9.69014 46.6963 9.56152L52.6211 9.08398C55.0745 8.8862 57.2317 10.696 57.4629 13.1465L58.0205 19.0635C58.1707 20.6563 59.0072 22.1048 60.3115 23.0312L65.1572 26.4736C67.1638 27.8992 67.653 30.6725 66.2549 32.6982L62.8779 37.5898C61.9693 38.9065 61.6794 40.5536 62.083 42.1016L63.582 47.8525C64.2031 50.2346 62.7953 52.674 60.4219 53.3271L54.6914 54.9033C53.1489 55.3278 51.8675 56.4032 51.1816 57.8486L48.6338 63.2178C47.5785 65.4417 44.9323 66.4051 42.6943 65.3799L37.291 62.9043C35.8365 62.2379 34.1635 62.2379 32.709 62.9043L27.3057 65.3799C25.0677 66.4051 22.4215 65.4417 21.3662 63.2178L18.8184 57.8486C18.1325 56.4032 16.8511 55.3278 15.3086 54.9033L9.57812 53.3271C7.20469 52.674 5.79686 50.2345 6.41797 47.8525L7.91699 42.1016C8.32062 40.5536 8.03067 38.9065 7.12207 37.5898L3.74512 32.6982C2.34701 30.6725 2.83624 27.8992 4.84277 26.4736L9.68848 23.0312C10.9928 22.1048 11.8293 20.6563 11.9795 19.0635L12.5371 13.1465C12.7683 10.696 14.9255 8.8862 17.3789 9.08398L23.3037 9.56152C24.8982 9.69014 26.4696 9.1185 27.6084 7.99512L31.8398 3.82031Z" stroke="#0D96E5"/>
<path d="M31.4883 8.4647C33.4354 6.5437 36.5646 6.5437 38.5117 8.4647L41.4034 11.3178C42.4388 12.3393 43.8676 12.8593 45.3173 12.7423L49.3665 12.4155C52.0928 12.1955 54.4899 14.2069 54.7467 16.93L55.1279 20.9744C55.2644 22.4224 56.0247 23.7393 57.2105 24.5815L60.5224 26.9339C62.7523 28.5178 63.2957 31.5995 61.742 33.8505L59.4344 37.1938C58.6082 38.3908 58.3441 39.8882 58.7111 41.2956L59.7361 45.2265C60.4262 47.8731 58.8616 50.5832 56.2244 51.3088L52.3077 52.3866C50.9054 52.7725 49.7406 53.7499 49.117 55.0639L47.3755 58.734C46.2029 61.205 43.2624 62.2753 40.7757 61.1361L37.0825 59.4441C35.7603 58.8383 34.2397 58.8383 32.9175 59.4441L29.2243 61.1361C26.7376 62.2753 23.7971 61.205 22.6245 58.734L20.883 55.0639C20.2594 53.7499 19.0946 52.7725 17.6923 52.3866L13.7756 51.3088C11.1384 50.5832 9.57381 47.8731 10.2639 45.2265L11.2889 41.2956C11.6559 39.8882 11.3918 38.3908 10.5656 37.1938L8.25803 33.8505C6.70432 31.5995 7.24771 28.5178 9.47762 26.9339L12.7895 24.5815C13.9753 23.7393 14.7356 22.4224 14.8721 20.9744L15.2534 16.93C15.5101 14.2069 17.9072 12.1955 20.6335 12.4155L24.6827 12.7423C26.1324 12.8593 27.5612 12.3393 28.5966 11.3178L31.4883 8.4647Z" fill="#0D96E5"/>
<path d="M31.4883 8.4647C33.4354 6.5437 36.5646 6.5437 38.5117 8.4647L41.4034 11.3178C42.4388 12.3393 43.8676 12.8593 45.3173 12.7423L49.3665 12.4155C52.0928 12.1955 54.4899 14.2069 54.7467 16.93L55.1279 20.9744C55.2644 22.4224 56.0247 23.7393 57.2105 24.5815L60.5224 26.9339C62.7523 28.5178 63.2957 31.5995 61.742 33.8505L59.4344 37.1938C58.6082 38.3908 58.3441 39.8882 58.7111 41.2956L59.7361 45.2265C60.4262 47.8731 58.8616 50.5832 56.2244 51.3088L52.3077 52.3866C50.9054 52.7725 49.7406 53.7499 49.117 55.0639L47.3755 58.734C46.2029 61.205 43.2624 62.2753 40.7757 61.1361L37.0825 59.4441C35.7603 58.8383 34.2397 58.8383 32.9175 59.4441L29.2243 61.1361C26.7376 62.2753 23.7971 61.205 22.6245 58.734L20.883 55.0639C20.2594 53.7499 19.0946 52.7725 17.6923 52.3866L13.7756 51.3088C11.1384 50.5832 9.57381 47.8731 10.2639 45.2265L11.2889 41.2956C11.6559 39.8882 11.3918 38.3908 10.5656 37.1938L8.25803 33.8505C6.70432 31.5995 7.24771 28.5178 9.47762 26.9339L12.7895 24.5815C13.9753 23.7393 14.7356 22.4224 14.8721 20.9744L15.2534 16.93C15.5101 14.2069 17.9072 12.1955 20.6335 12.4155L24.6827 12.7423C26.1324 12.8593 27.5612 12.3393 28.5966 11.3178L31.4883 8.4647Z" fill="url(#paint0_linear_178_2690)"/>
<path d="M23.2223 33.798C22.6121 33.7994 22.0149 33.9485 21.4998 34.228C20.9846 34.5075 20.5726 34.906 20.3113 35.3773C20.05 35.8487 19.9502 36.3736 20.0233 36.8915C20.0965 37.4093 20.3396 37.8988 20.7247 38.3034L28.9327 46.8988C29.2253 47.2094 29.6005 47.4559 30.0269 47.6177C30.4534 47.7796 30.9188 47.8521 31.3847 47.8292C32.3809 47.7835 33.2804 47.3279 33.8539 46.5788L50.904 23.1052C50.9068 23.1013 50.9097 23.0974 50.9127 23.0936C51.0727 22.8836 51.0208 22.4675 50.6906 22.2061C50.5999 22.1343 50.4929 22.0791 50.3763 22.044C50.2598 22.0089 50.136 21.9945 50.0127 22.0019C49.8893 22.0092 49.7691 22.038 49.6593 22.0865C49.5495 22.1351 49.4525 22.2023 49.3742 22.2841C49.3681 22.2906 49.3618 22.2969 49.3553 22.3031L32.16 38.9113C32.0946 38.9745 32.0152 39.0259 31.9263 39.0627C31.8374 39.0994 31.7408 39.1207 31.6423 39.1252C31.5437 39.1298 31.445 39.1175 31.352 39.0892C31.259 39.0609 31.1735 39.0171 31.1005 38.9603L25.3937 34.5209C24.801 34.0564 24.0263 33.7985 23.2223 33.798Z" fill="white"/>
<defs>
<linearGradient id="paint0_linear_178_2690" x1="9.77273" y1="-19.6429" x2="44.1427" y2="-11.2879" gradientUnits="userSpaceOnUse">
<stop stop-color="#04476E"/>
<stop offset="1" stop-color="#0789D4"/>
</linearGradient>
</defs>
</svg>
