<svg width="100" height="100" viewBox="0 0 100 100" fill="none" xmlns="http://www.w3.org/2000/svg">
<path d="M23.6368 41.1471C23.6519 39.9445 24.2072 38.8124 25.1492 38.0645L50.7712 17.7203C53.4156 15.6206 57.3113 17.5398 57.2581 20.9159L56.2462 85.1015C56.1935 88.4445 52.3063 90.2514 49.7166 88.1366L24.8126 67.7996C23.8687 67.0289 23.3277 65.8699 23.343 64.6514L23.6368 41.1471Z" fill="white"/>
<path d="M54.8281 9.57501C52.1297 8.25157 48.9156 8.62969 46.5781 10.5203L18.7172 32.8813H9.77969C4.38281 32.8984 0 37.2641 0 42.6609V57.3219C0 62.7188 4.38281 67.0844 9.77969 67.1016H18.7172L46.5781 89.4797C49.9297 92.1609 54.8281 91.6281 57.5094 88.2766C58.6094 86.9016 59.2281 85.1828 59.2281 83.4125V16.6047C59.2453 13.5969 57.5266 10.8641 54.8281 9.57501ZM3.59219 57.3391V42.6781C3.59219 39.2578 6.35938 36.4906 9.77969 36.4906H17.5656V63.5266H9.77969C6.35938 63.5094 3.59219 60.7422 3.59219 57.3391ZM55.6359 83.4125C55.6359 85.7328 53.7625 87.6063 51.4422 87.6063C50.4969 87.6063 49.5688 87.2797 48.8297 86.6781L21.1406 64.4547V35.5453L48.8297 13.3219C50.6344 11.8781 53.2641 12.1703 54.725 13.975C55.3266 14.7141 55.6531 15.6422 55.6531 16.5875L55.6359 83.4125ZM79.2172 28.7734C78.5125 28.0688 77.3781 28.0688 76.6734 28.7734C75.9688 29.4781 75.9688 30.6125 76.6734 31.3172C86.9859 41.6297 86.9859 58.3875 76.6734 68.7C75.9688 69.4047 75.9688 70.5391 76.6734 71.2438C77.3781 71.9484 78.5125 71.9484 79.2172 71.2438C90.9219 59.5219 90.9219 40.4781 79.2172 28.7734Z" fill="#E3001A"/>
<path d="M71.3452 36.6452C70.6405 35.9405 69.5062 35.9405 68.8015 36.6452C68.0968 37.3499 68.0968 38.4843 68.8015 39.189C74.7655 45.1702 74.7655 54.8468 68.8015 60.8108C68.0968 61.5155 68.0968 62.6499 68.8015 63.3546C69.5062 64.0593 70.6405 64.0593 71.3452 63.3546C78.7187 55.9812 78.7187 44.0187 71.3452 36.6452Z" fill="#E3001A"/>
</svg>
