<svg width="100" height="100" viewBox="0 0 100 100" fill="none" xmlns="http://www.w3.org/2000/svg">
<circle cx="48.5" cy="51.5" r="38.5" fill="white"/>
<mask id="mask0_85_995" style="mask-type:luminance" maskUnits="userSpaceOnUse" x="0" y="6" width="88" height="88">
<path d="M86.5 92.5V7.5H1.5V92.5H86.5Z" fill="white" stroke="white" stroke-width="3"/>
</mask>
<g mask="url(#mask0_85_995)">
<path d="M35.716 72.092V30.6702H49.5234C52.4541 30.6706 55.2648 31.8341 57.3384 33.9052C59.4095 35.9763 60.5693 38.7861 60.5693 41.7161C60.5693 47.8161 55.6261 52.7618 49.5234 52.7618H30.1931" stroke="#E3001A" stroke-width="4" stroke-miterlimit="10" stroke-linecap="round" stroke-linejoin="round"/>
<path d="M49.5234 63.8076H30.1931" stroke="#E3001A" stroke-width="3" stroke-miterlimit="10" stroke-linecap="round" stroke-linejoin="round"/>
<path d="M44 8.57814C66.8649 8.57814 85.4219 27.1393 85.4219 50C85.4219 72.8608 66.8649 91.4219 44 91.4219C21.1351 91.4219 2.57812 72.8608 2.57812 50C2.57812 27.1393 21.1351 8.57814 44 8.57814Z" stroke="#E3001A" stroke-width="4" stroke-miterlimit="10" stroke-linecap="round" stroke-linejoin="round"/>
</g>
</svg>
