<svg width="100" height="100" viewBox="0 0 100 100" fill="none" xmlns="http://www.w3.org/2000/svg">
<rect x="3" y="27" width="51" height="61" rx="4" fill="white"/>
<circle cx="56.5" cy="78.5" r="12.5" fill="white"/>
<path d="M70.7165 68.0079C68.5426 65.4666 65.6463 63.658 62.4486 62.8171V13.8365C62.4486 8.96387 58.4839 5 53.6102 5H20.3084C19.0458 5 17.8153 5.29883 16.7084 5.85219C16.703 5.85482 16.6974 5.85623 16.6919 5.85904C16.6865 5.86186 16.6803 5.8659 16.674 5.86854C16.6061 5.90299 16.5388 5.94008 16.4715 5.97646C16.42 6.00459 16.3678 6.03201 16.317 6.06084C16.2565 6.09512 16.1974 6.13098 16.1386 6.16736C16.0802 6.20234 16.0225 6.23732 15.9654 6.27371C15.9132 6.30746 15.8617 6.34174 15.8097 6.37672C15.7471 6.41855 15.6847 6.4618 15.6233 6.50574C15.5107 6.58547 15.4006 6.66859 15.293 6.755C15.2514 6.78875 15.2094 6.8218 15.1682 6.85607C15.1037 6.90951 15.0399 6.96506 14.9766 7.02078C14.9376 7.05506 14.8991 7.08881 14.8606 7.12379C14.7968 7.18215 14.7342 7.24332 14.6725 7.30361C14.6369 7.33877 14.6005 7.37305 14.5653 7.40873C14.4913 7.48432 14.4191 7.56184 14.3477 7.64076C14.3284 7.66221 14.3085 7.68207 14.2893 7.70334L9.00289 13.6502L2.39387 21.0847C2.31473 21.1738 2.2376 21.2646 2.16254 21.3571C2.13969 21.3853 2.11859 21.4143 2.09574 21.4424C2.04723 21.505 1.99766 21.5667 1.95107 21.6305C1.91328 21.6808 1.8776 21.7323 1.84121 21.7831C1.81238 21.8249 1.78215 21.866 1.75332 21.9079C1.70867 21.974 1.66613 22.0404 1.62342 22.107C1.60637 22.1346 1.58844 22.1613 1.57139 22.1888C1.52182 22.2684 1.47523 22.348 1.42848 22.4291L1.40387 22.4723C1.35158 22.5647 1.30118 22.6581 1.2527 22.7525C0.66588 23.8911 0.359603 25.1534 0.359375 26.4342L0.359375 81.0706C0.359375 85.9445 4.32412 89.9092 9.19783 89.9092H46.4223C47.9494 91.5184 49.7883 92.7997 51.8268 93.675C53.8654 94.5502 56.0608 95.001 58.2793 95C67.3011 95 74.6407 87.6604 74.6407 78.6386C74.6407 74.7405 73.2467 70.9654 70.7165 68.0079ZM15.7237 11.381V21.2274C15.7234 21.5074 15.612 21.7758 15.414 21.9738C15.216 22.1718 14.9476 22.2832 14.6676 22.2835H6.03236L11.3292 16.3242L15.7237 11.381ZM9.19713 86.3936C6.26246 86.3938 3.875 84.0061 3.875 81.0714V26.4351C3.875 26.2207 3.89434 26.0087 3.92439 25.7991H14.6676C17.1883 25.7991 19.2393 23.7481 19.2393 21.2274V8.64535C19.5893 8.5597 19.9482 8.51615 20.3084 8.51562H53.6102C56.5456 8.51562 58.9328 10.9024 58.9328 13.8365V62.2896C58.7151 62.2811 58.4972 62.2768 58.2793 62.2766C49.2575 62.2766 41.9172 69.6168 41.9172 78.6386C41.9172 78.8562 41.9234 79.0733 41.9323 79.2903C41.9344 79.3493 41.9371 79.4077 41.9406 79.466C41.9494 79.6501 41.9617 79.8334 41.977 80.0161C41.9805 80.0524 41.9824 80.0888 41.9858 80.1245C42.0051 80.3374 42.029 80.5499 42.0573 80.7617C42.0642 80.816 42.0724 80.8702 42.08 80.9245C42.1039 81.0954 42.1308 81.265 42.1603 81.4353C42.1691 81.4863 42.1774 81.5376 42.1863 81.5891C42.2248 81.798 42.2667 82.0045 42.3127 82.2114L42.3444 82.345C42.3841 82.5141 42.4259 82.6823 42.4706 82.8491C42.4857 82.9068 42.5008 82.9644 42.5166 83.0221C42.5736 83.226 42.6327 83.4287 42.6972 83.6298C42.7047 83.6526 42.713 83.6744 42.72 83.6971C42.7988 83.9379 42.883 84.1769 42.9726 84.4139C43.0371 84.5849 43.1044 84.7547 43.1744 84.9235C43.1867 84.9538 43.1985 84.9845 43.2115 85.0149C43.2934 85.2079 43.3791 85.3992 43.4683 85.5888C43.4945 85.6437 43.5212 85.6987 43.5479 85.7536C43.6207 85.904 43.6956 86.0536 43.7726 86.202C43.7972 86.2487 43.8206 86.2953 43.8454 86.3421C43.8549 86.3593 43.8631 86.3772 43.8721 86.3936H9.19713ZM58.2793 91.4844C56.4279 91.4851 54.5983 91.0852 52.9161 90.312C51.2339 89.5389 49.7389 88.4109 48.5338 87.0055C46.5328 84.6771 45.4326 81.7087 45.4328 78.6386C45.4328 71.5552 51.1958 65.7922 58.2793 65.7922C58.9912 65.7922 59.7049 65.8512 60.4031 65.9687C66.6159 67 71.125 72.3284 71.125 78.6386C71.125 85.7214 65.3627 91.4844 58.2793 91.4844Z" fill="#E3001A"/>
<path d="M18.0849 35.446H45.9531C46.9239 35.446 47.7109 34.6592 47.7109 33.6882C47.7109 32.7172 46.9239 31.9304 45.9531 31.9304H18.0847C17.1141 31.9304 16.3269 32.7174 16.3269 33.6882C16.3269 34.6591 17.1142 35.446 18.0849 35.446ZM47.4143 45.6408C47.3511 45.5459 47.2776 45.4545 47.1965 45.3736C47.1141 45.2926 47.0243 45.219 46.9294 45.1558C46.8333 45.0924 46.7315 45.0382 46.6253 44.994C46.304 44.8605 45.9502 44.8257 45.6091 44.8938C45.4966 44.9163 45.3858 44.95 45.2809 44.994C45.1751 45.0379 45.0728 45.092 44.9768 45.1558C44.8806 45.2192 44.791 45.2922 44.7096 45.3736C44.6286 45.4545 44.5544 45.5459 44.4913 45.6408C44.428 45.7375 44.3738 45.8391 44.3299 45.9449C44.286 46.0506 44.2522 46.1611 44.2297 46.2736C44.2069 46.3865 44.1956 46.5013 44.196 46.6164C44.196 46.7324 44.2063 46.8465 44.2295 46.9609C44.2524 47.0738 44.2858 47.1842 44.3297 47.2893C44.3737 47.3951 44.4282 47.4974 44.4913 47.5934C44.5544 47.689 44.6284 47.7782 44.7096 47.8606C45.0395 48.1894 45.4859 48.3747 45.9517 48.3763C46.0677 48.3763 46.1825 48.364 46.2964 48.3407C46.4089 48.3178 46.5196 48.2844 46.6253 48.2405C46.7311 48.1965 46.8327 48.142 46.9294 48.0789C47.0243 48.0139 47.1141 47.9418 47.1965 47.8606C47.2776 47.7782 47.3496 47.689 47.4143 47.5934C47.4781 47.4974 47.5323 47.3951 47.5762 47.2893C47.6202 47.1842 47.6539 47.0738 47.6764 46.9611C47.6993 46.8465 47.7095 46.7326 47.7095 46.6164C47.7095 46.5025 47.6993 46.3879 47.6766 46.2736C47.6538 46.1611 47.6204 46.0506 47.5764 45.9449C47.5321 45.8387 47.4778 45.7368 47.4143 45.6408ZM18.0849 48.3749H38.9218C39.8927 48.3749 40.6796 47.588 40.6796 46.6171C40.6796 45.6461 39.8927 44.8593 38.9218 44.8593H18.0847C17.1141 44.8593 16.3269 45.6461 16.3269 46.6171C16.3269 47.588 17.1142 48.3749 18.0849 48.3749ZM18.0849 61.3045H45.9531C46.9239 61.3045 47.7109 60.517 47.7109 59.5467C47.7109 58.5757 46.9239 57.7889 45.9531 57.7889H18.0847C17.1141 57.7889 16.3269 58.5757 16.3269 59.5467C16.3269 60.517 17.1142 61.3045 18.0849 61.3045ZM38.1816 70.7178H18.0849C17.1141 70.7178 16.3271 71.5046 16.3271 72.4756C16.3271 73.4466 17.1141 74.2334 18.0849 74.2334H38.1816C39.1526 74.2334 39.9394 73.4464 39.9394 72.4756C39.9394 71.5047 39.1526 70.7178 38.1816 70.7178ZM63.832 71.2704C60.65 74.6514 58.2166 79.8116 57.0259 82.6523L51.5911 79.1683C50.774 78.6444 49.6863 78.8826 49.1625 79.6997C48.6387 80.5167 48.8768 81.6037 49.6939 82.1277L56.9283 86.7659C57.1512 86.9084 57.4033 86.9988 57.6659 87.0306C57.9285 87.0623 58.1949 87.0345 58.4453 86.9492C58.6955 86.8637 58.9233 86.7229 59.1115 86.5372C59.2998 86.3515 59.4439 86.1258 59.5329 85.8768C59.561 85.7977 62.403 77.9185 66.3924 73.6799C67.0577 72.9732 67.0234 71.8609 66.3168 71.1948C65.6096 70.5302 64.4975 70.5638 63.832 71.2704Z" fill="#E3001A"/>
</svg>
