<svg width="100" height="100" viewBox="0 0 100 100" fill="none" xmlns="http://www.w3.org/2000/svg">
<path d="M53.5 19.5L60 22L70 15.5L79 26L73 35L76 42L87.5 44V57L76 59L73 66L79 76L70 84.5L60 80L53.5 82.5L50 92.5H38.5L36.5 82.5L30 80L19.5 84.5L11 76L16.5 66L14 60L2.5 57V44L13 42L16.5 35L9.5 26L19.5 15.5L28.5 22L36.5 18L38.5 8.5H51.5L53.5 19.5ZM47.5 30C36.1782 30 27 39.1782 27 50.5C27 61.8218 36.1782 71 47.5 71C58.8218 71 68 61.8218 68 50.5C68 39.1782 58.8218 30 47.5 30Z" fill="white"/>
<path d="M48.6533 95H40.3467C38.9886 94.9987 37.678 94.5 36.6626 93.5981C35.6472 92.6961 34.9975 91.4535 34.8361 90.105L33.9498 83.1482C32.1986 82.5798 30.4949 81.8742 28.8545 81.0381L23.3143 85.3435C22.2446 86.1844 20.9025 86.6016 19.5446 86.5154C18.1866 86.4292 16.9081 85.8456 15.9532 84.8763L10.1126 79.0356C9.14851 78.0817 8.56946 76.8062 8.48601 75.4526C8.40256 74.0989 8.82056 72.7619 9.66021 71.6968L13.9656 66.1529C13.1264 64.514 12.4207 62.81 11.8555 61.0576L4.88387 60.1713C3.5371 60.005 2.29748 59.3524 1.3981 58.3362C0.498712 57.3201 0.00151849 56.0103 0 54.6533L0 46.3467C0 43.5395 2.10263 41.1698 4.895 40.8361L11.8518 39.9498C12.4202 38.1986 13.1258 36.4949 13.9619 34.8545L9.66021 29.3143C8.81719 28.2445 8.399 26.901 8.48592 25.5418C8.57284 24.1825 9.15875 22.9032 10.1312 21.9495L15.9718 16.1089C16.9261 15.1455 18.2015 14.567 19.5549 14.4836C20.9084 14.4001 22.2452 14.8176 23.3106 15.6565L28.8508 19.9656C30.4922 19.1288 32.1971 18.4233 33.9498 17.8555L34.8361 10.8839C35.1698 8.10263 37.5395 6 40.3467 6H48.6533C51.4605 6 53.8302 8.10263 54.1639 10.895L55.0502 17.8518C56.8228 18.4266 58.5286 19.1349 60.1492 19.9619L65.6894 15.6565C66.7589 14.8145 68.1016 14.397 69.46 14.4839C70.8184 14.5708 72.0969 15.156 73.0505 16.1275L78.8911 21.9681C80.8825 23.9001 81.0827 27.0633 79.3435 29.3069L75.0381 34.8508C75.8688 36.4714 76.5771 38.1772 77.1482 39.9461L84.1198 40.8324C85.4656 40.9987 86.7043 41.6509 87.603 42.6664C88.5017 43.6819 88.9985 44.9906 89 46.3467V54.6533C89 57.4605 86.8974 59.8302 84.105 60.1639L77.1482 61.0502C76.5798 62.8014 75.8742 64.5051 75.0381 66.1455L79.3435 71.6857C80.1855 72.7552 80.603 74.0979 80.5161 75.4563C80.4292 76.8147 79.8439 78.0932 78.8725 79.0467L73.0319 84.8874C72.0785 85.8522 70.8028 86.4318 69.4489 86.5153C68.095 86.5987 66.7579 86.1802 65.6931 85.3398L60.1492 81.0344C58.5103 81.8736 56.8063 82.5793 55.0539 83.1445L54.1676 90.1161C54.0021 91.4626 53.3503 92.7021 52.3347 93.6016C51.3192 94.501 50.0099 94.9984 48.6533 95ZM28.6654 76.9775C28.9732 76.9775 29.2884 77.0554 29.5702 77.2111C31.6514 78.3696 33.8588 79.2854 36.1488 79.9405C36.497 80.0404 36.8082 80.2401 37.0441 80.5149C37.2801 80.7897 37.4303 81.1276 37.4764 81.4868L38.5147 89.6452C38.626 90.576 39.4307 91.2917 40.3467 91.2917H48.6533C49.1029 91.2856 49.5353 91.1177 49.8711 90.8186C50.2068 90.5196 50.4236 90.1096 50.4815 89.6637L51.5236 81.4905C51.5696 81.1313 51.7199 80.7934 51.9559 80.5186C52.1918 80.2438 52.503 80.0441 52.8512 79.9442C55.1412 79.2891 57.3485 78.3733 59.4297 77.2148C59.7474 77.0374 60.1103 76.9576 60.473 76.9853C60.8358 77.013 61.1823 77.147 61.4693 77.3706L67.9589 82.4139C68.3084 82.6952 68.7494 82.8379 69.1975 82.8147C69.6456 82.7914 70.0694 82.6038 70.3879 82.2878L76.2656 76.4101C76.5871 76.0917 76.7797 75.6658 76.8064 75.2141C76.8331 74.7623 76.692 74.3167 76.4102 73.9626L71.3669 67.473C71.1437 67.1858 71.01 66.8393 70.9823 66.4767C70.9546 66.114 71.0342 65.7512 71.2111 65.4335C72.3696 63.3523 73.2854 61.145 73.9405 58.8549C74.0404 58.5067 74.2401 58.1955 74.5149 57.9596C74.7897 57.7236 75.1276 57.5734 75.4868 57.5273L83.6452 56.489C84.0947 56.4327 84.5089 56.216 84.8114 55.8788C85.1139 55.5415 85.2844 55.1063 85.2917 54.6533V46.3467C85.2856 45.8971 85.1177 45.4647 84.8186 45.1289C84.5196 44.7932 84.1096 44.5764 83.6637 44.5185L75.4905 43.4764C75.1313 43.4303 74.7934 43.2801 74.5186 43.0441C74.2438 42.8082 74.0441 42.497 73.9442 42.1488C73.2891 39.8588 72.3733 37.6514 71.2148 35.5702C71.0365 35.2529 70.9561 34.8898 70.9838 34.5269C71.0115 34.1639 71.1461 33.8172 71.3706 33.5307L76.4139 27.0411C76.6963 26.6929 76.8399 26.2527 76.8173 25.805C76.7947 25.3573 76.6075 24.9338 76.2915 24.6158L70.4138 18.7381C70.0967 18.4143 69.6704 18.2202 69.218 18.1934C68.7656 18.1667 68.3194 18.3093 67.9663 18.5935L61.4767 23.6368C61.1892 23.8607 60.842 23.9949 60.4786 24.0226C60.1152 24.0503 59.7517 23.9703 59.4335 23.7926C57.3527 22.6331 55.1453 21.7172 52.8549 21.0632C52.5067 20.9633 52.1955 20.7636 51.9596 20.4888C51.7236 20.214 51.5734 19.8761 51.5273 19.5169L50.489 11.3585C50.4335 10.9083 50.2172 10.4933 49.8799 10.19C49.5425 9.88675 49.1069 9.71567 48.6533 9.70833H40.3467C39.8971 9.7144 39.4647 9.88233 39.1289 10.1813C38.7932 10.4804 38.5764 10.8904 38.5185 11.3363L37.4764 19.5095C37.4301 19.869 37.2798 20.2073 37.044 20.4826C36.8081 20.758 36.497 20.9585 36.1488 21.0595C33.8585 21.7123 31.6511 22.6268 29.5702 23.7852C29.2524 23.9634 28.8891 24.0441 28.5257 24.017C28.1623 23.99 27.8149 23.8565 27.527 23.6331L21.0374 18.5898C20.6892 18.3075 20.249 18.1638 19.8013 18.1864C19.3536 18.209 18.9301 18.3962 18.6121 18.7122L12.7344 24.5936C12.4129 24.912 12.2203 25.3379 12.1936 25.7896C12.1669 26.2414 12.308 26.687 12.5898 27.0411L17.6331 33.5307C17.8563 33.8179 17.99 34.1644 18.0177 34.527C18.0454 34.8897 17.9658 35.2525 17.7889 35.5702C16.6288 37.6507 15.713 39.8582 15.0595 42.1488C14.9596 42.497 14.7599 42.8082 14.4851 43.0441C14.2103 43.2801 13.8724 43.4303 13.5132 43.4764L5.35483 44.5147C4.90528 44.5694 4.49076 44.7851 4.18803 45.1219C3.88531 45.4587 3.71489 45.8938 3.70833 46.3467V54.6533C3.70833 55.5693 4.42404 56.374 5.33629 56.4815L13.5095 57.5236C13.8687 57.5696 14.2066 57.7199 14.4814 57.9559C14.7562 58.1918 14.9559 58.503 15.0558 58.8512C15.7233 61.1726 16.643 63.3865 17.7852 65.4297C17.9635 65.7471 18.0439 66.1102 18.0162 66.4731C17.9885 66.8361 17.8539 67.1828 17.6294 67.4693L12.5861 73.9589C12.3038 74.3071 12.1601 74.7473 12.1827 75.195C12.2053 75.6427 12.3925 76.0662 12.7085 76.3842L18.5862 82.2619C18.9041 82.5842 19.3302 82.7773 19.7822 82.804C20.2341 82.8307 20.6799 82.6891 21.0337 82.4065L27.5232 77.3632C27.8523 77.1147 28.253 76.9794 28.6654 76.9775Z" fill="#E3001A"/>
<path d="M44.4999 69.0416C34.276 69.0416 25.9583 60.7238 25.9583 50.4999C25.9583 40.276 34.276 31.9583 44.4999 31.9583C54.7238 31.9583 63.0416 40.276 63.0416 50.4999C63.0416 60.7238 54.7238 69.0416 44.4999 69.0416ZM44.4999 35.6666C36.3193 35.6666 29.6666 42.3193 29.6666 50.4999C29.6666 58.6805 36.3193 65.3333 44.4999 65.3333C52.6805 65.3333 59.3333 58.6805 59.3333 50.4999C59.3333 42.3193 52.6805 35.6666 44.4999 35.6666Z" fill="#E3001A"/>
</svg>
