<svg width="676" height="183" viewBox="0 0 676 183" fill="none" xmlns="http://www.w3.org/2000/svg">
<rect width="140" height="140" rx="16" fill="#E7F6FF"/>
<rect x="17.7708" y="11.4575" width="84.2729" height="108.677" rx="8" fill="white"/>
<path d="M30.2876 9C21.8488 9 15 15.8815 15 24.3681V116.638C15 125.125 21.8488 132 30.2876 132H98.2073C106.646 132 113.495 125.125 113.495 116.638V105.101C113.494 104.526 113.348 103.96 113.07 103.457C112.792 102.955 112.391 102.531 111.905 102.227C111.42 101.923 110.865 101.749 110.294 101.72C109.722 101.691 109.153 101.81 108.64 102.063C108.272 102.233 107.96 102.503 107.737 102.842C107.515 103.181 107.391 103.576 107.38 103.982V116.638C107.378 119.083 106.411 121.428 104.691 123.157C102.971 124.885 100.639 125.856 98.2073 125.856H30.2876C27.8549 125.856 25.5218 124.885 23.8016 123.155C22.0814 121.425 21.115 119.078 21.115 116.632V24.3681C21.115 21.9216 22.0814 19.5753 23.8016 17.8453C25.5218 16.1154 27.8549 15.1435 30.2876 15.1435H98.2073C100.639 15.1435 102.971 16.1146 104.691 17.8432C106.411 19.5718 107.378 21.9165 107.38 24.3619V41.6426C107.379 42.3112 107.548 42.969 107.871 43.5538C108.193 44.1387 108.658 44.6312 109.223 44.9851C109.787 45.3389 110.431 45.5424 111.095 45.5763C111.759 45.6101 112.421 45.4733 113.018 45.1786C113.159 45.1109 113.279 45.0047 113.363 44.8721C113.447 44.7395 113.493 44.5858 113.495 44.4284V24.3681C113.495 15.8815 106.646 9.00615 98.2073 9.00615L30.2876 9Z" fill="#0090E3"/>
<path fill-rule="evenodd" clip-rule="evenodd" d="M87.3593 117.351C86.8986 117.656 86.3643 117.83 85.8132 117.855C85.2621 117.88 84.7147 117.754 84.2289 117.491C83.7431 117.228 83.3371 116.838 83.0539 116.362C82.7706 115.886 82.6208 115.342 82.6201 114.787L82.6324 101.036L107.832 54.034C109.011 51.9272 110.964 50.3695 113.272 49.6962C115.581 49.0229 118.06 49.2876 120.176 50.4336C122.292 51.5795 123.877 53.515 124.589 55.8237C125.3 58.1325 125.083 60.6299 123.982 62.7789L98.7883 109.775L87.3593 117.351ZM94.1286 105.501L88.7413 109.08L88.7474 102.586L113.214 56.949C113.612 56.2571 114.262 55.7483 115.027 55.5304C115.791 55.3125 116.61 55.4026 117.31 55.7816C118.01 56.1607 118.535 56.7989 118.775 57.5609C119.015 58.323 118.95 59.149 118.595 59.8639L94.1286 105.501Z" fill="#0090E3"/>
<path d="M39.4603 45.9221C39.0477 45.9036 38.6356 45.9693 38.249 46.1152C37.8623 46.2612 37.509 46.4845 37.2105 46.7716C36.912 47.0586 36.6744 47.4036 36.5121 47.7855C36.3498 48.1675 36.2661 48.5785 36.2661 48.9939C36.2661 49.4093 36.3498 49.8203 36.5121 50.2023C36.6744 50.5842 36.912 50.9291 37.2105 51.2162C37.509 51.5033 37.8623 51.7266 38.249 51.8725C38.6356 52.0185 39.0477 52.0842 39.4603 52.0657H88.3806C89.1915 52.0657 89.9692 51.7417 90.5426 51.1651C91.116 50.5884 91.4381 49.8063 91.4381 48.9908C91.4381 48.1753 91.116 47.3932 90.5426 46.8166C89.9692 46.2399 89.1915 45.916 88.3806 45.916L39.4603 45.9221ZM36.4028 30.5602C36.4028 29.7447 36.7249 28.9626 37.2983 28.386C37.8717 27.8093 38.6494 27.4854 39.4603 27.4854H88.3806C89.1915 27.4854 89.9692 27.8093 90.5426 28.386C91.116 28.9626 91.4381 29.7447 91.4381 30.5602C91.4381 31.3757 91.116 32.1578 90.5426 32.7344C89.9692 33.3111 89.1915 33.635 88.3806 33.635H39.4603C38.6494 33.635 37.8717 33.3111 37.2983 32.7344C36.7249 32.1578 36.4028 31.3757 36.4028 30.5602ZM39.4603 64.3528C38.6494 64.3528 37.8717 64.6767 37.2983 65.2534C36.7249 65.83 36.4028 66.6121 36.4028 67.4276C36.4028 68.2431 36.7249 69.0252 37.2983 69.6018C37.8717 70.1785 38.6494 70.5024 39.4603 70.5024H88.3806C89.1915 70.5024 89.9692 70.1785 90.5426 69.6018C91.116 69.0252 91.4381 68.2431 91.4381 67.4276C91.4381 66.6121 91.116 65.83 90.5426 65.2534C89.9692 64.6767 89.1915 64.3528 88.3806 64.3528H39.4603ZM36.4028 85.8582C36.4028 85.0427 36.7249 84.2606 37.2983 83.684C37.8717 83.1073 38.6494 82.7834 39.4603 82.7834H76.1506C76.9615 82.7834 77.7392 83.1073 78.3125 83.684C78.8859 84.2606 79.2081 85.0427 79.2081 85.8582C79.2081 86.6737 78.8859 87.4558 78.3125 88.0325C77.7392 88.6091 76.9615 88.9331 76.1506 88.9331H39.4603C38.6494 88.9331 37.8717 88.6091 37.2983 88.0325C36.7249 87.4558 36.4028 86.6737 36.4028 85.8582ZM39.4603 101.22C39.0477 101.202 38.6356 101.267 38.249 101.413C37.8623 101.559 37.509 101.783 37.2105 102.07C36.912 102.357 36.6744 102.702 36.5121 103.084C36.3498 103.465 36.2661 103.877 36.2661 104.292C36.2661 104.707 36.3498 105.118 36.5121 105.5C36.6744 105.882 36.912 106.227 37.2105 106.514C37.509 106.801 37.8623 107.025 38.249 107.171C38.6356 107.317 39.0477 107.382 39.4603 107.364H76.1506C76.9615 107.364 77.7392 107.04 78.3125 106.463C78.8859 105.886 79.2081 105.104 79.2081 104.289C79.2081 103.473 78.8859 102.691 78.3125 102.115C77.7392 101.538 76.9615 101.214 76.1506 101.214L39.4603 101.22Z" fill="#0090E3"/>
<path d="M19.5156 176V156.012H35.334V176H31.1094V159.539H23.7539V176H19.5156ZM48.5547 160.428C50.2773 160.428 51.6673 161.098 52.7246 162.438C53.791 163.777 54.3242 165.742 54.3242 168.33C54.3242 170.062 54.0736 171.52 53.5723 172.705C53.071 173.881 52.3783 174.77 51.4941 175.371C50.61 175.973 49.5938 176.273 48.4453 176.273C47.707 176.273 47.0736 176.182 46.5449 176C46.0163 175.809 45.5651 175.567 45.1914 175.275C44.8177 174.975 44.4941 174.656 44.2207 174.318H44.002C44.0749 174.683 44.1296 175.057 44.166 175.439C44.2025 175.822 44.2207 176.196 44.2207 176.561V182.727H40.0508V160.715H43.4414L44.0293 162.697H44.2207C44.4941 162.287 44.8268 161.909 45.2188 161.562C45.6107 161.216 46.0801 160.943 46.627 160.742C47.1829 160.533 47.8255 160.428 48.5547 160.428ZM47.2148 163.764C46.4857 163.764 45.9069 163.914 45.4785 164.215C45.0501 164.516 44.7357 164.967 44.5352 165.568C44.3438 166.17 44.2389 166.931 44.2207 167.852V168.303C44.2207 169.287 44.3118 170.121 44.4941 170.805C44.6855 171.488 45 172.008 45.4375 172.363C45.8841 172.719 46.4948 172.896 47.2695 172.896C47.9076 172.896 48.4316 172.719 48.8418 172.363C49.252 172.008 49.5573 171.488 49.7578 170.805C49.9674 170.112 50.0723 169.269 50.0723 168.275C50.0723 166.781 49.8398 165.655 49.375 164.898C48.9102 164.142 48.1901 163.764 47.2148 163.764ZM71.6602 168.33C71.6602 169.606 71.487 170.736 71.1406 171.721C70.8034 172.705 70.3066 173.539 69.6504 174.223C69.0033 174.897 68.2194 175.408 67.2988 175.754C66.3874 176.1 65.3574 176.273 64.209 176.273C63.1335 176.273 62.1445 176.1 61.2422 175.754C60.349 175.408 59.5697 174.897 58.9043 174.223C58.248 173.539 57.7376 172.705 57.373 171.721C57.0176 170.736 56.8398 169.606 56.8398 168.33C56.8398 166.635 57.1406 165.199 57.7422 164.023C58.3438 162.848 59.2005 161.954 60.3125 161.344C61.4245 160.733 62.7507 160.428 64.291 160.428C65.722 160.428 66.9889 160.733 68.0918 161.344C69.2038 161.954 70.0742 162.848 70.7031 164.023C71.3411 165.199 71.6602 166.635 71.6602 168.33ZM61.0918 168.33C61.0918 169.333 61.2012 170.176 61.4199 170.859C61.6387 171.543 61.9805 172.058 62.4453 172.404C62.9102 172.751 63.5163 172.924 64.2637 172.924C65.002 172.924 65.599 172.751 66.0547 172.404C66.5195 172.058 66.8568 171.543 67.0664 170.859C67.2852 170.176 67.3945 169.333 67.3945 168.33C67.3945 167.318 67.2852 166.48 67.0664 165.814C66.8568 165.14 66.5195 164.634 66.0547 164.297C65.5898 163.96 64.9837 163.791 64.2363 163.791C63.1335 163.791 62.3314 164.169 61.8301 164.926C61.3379 165.682 61.0918 166.817 61.0918 168.33ZM81.4082 160.428C82.821 160.428 84.0378 160.701 85.0586 161.248C86.0794 161.786 86.8678 162.57 87.4238 163.6C87.9798 164.63 88.2578 165.887 88.2578 167.373V169.396H78.4004C78.446 170.572 78.7969 171.497 79.4531 172.172C80.1185 172.837 81.0391 173.17 82.2148 173.17C83.1901 173.17 84.0833 173.07 84.8945 172.869C85.7057 172.669 86.5397 172.368 87.3965 171.967V175.193C86.64 175.567 85.847 175.84 85.0176 176.014C84.1973 176.187 83.1992 176.273 82.0234 176.273C80.4922 176.273 79.1341 175.991 77.9492 175.426C76.7734 174.861 75.8483 173.999 75.1738 172.842C74.5085 171.684 74.1758 170.226 74.1758 168.467C74.1758 166.68 74.4766 165.195 75.0781 164.01C75.6888 162.816 76.5365 161.923 77.6211 161.33C78.7057 160.729 79.9681 160.428 81.4082 160.428ZM81.4355 163.395C80.6243 163.395 79.9499 163.654 79.4121 164.174C78.8835 164.693 78.5781 165.509 78.4961 166.621H84.3477C84.3385 166.001 84.2246 165.45 84.0059 164.967C83.7962 164.484 83.4772 164.101 83.0488 163.818C82.6296 163.536 82.0918 163.395 81.4355 163.395ZM101.67 160.715H106.264L100.207 168.043L106.797 176H102.066L95.8184 168.248V176H91.6484V160.715H95.8184V168.139L101.67 160.715ZM121.631 163.846H116.627V176H112.457V163.846H107.439V160.715H121.631V163.846Z" fill="#181818"/>
<path d="M245.414 92.4142C246.195 91.6332 246.195 90.3668 245.414 89.5858L232.686 76.8579C231.905 76.0768 230.639 76.0768 229.858 76.8579C229.077 77.6389 229.077 78.9052 229.858 79.6863L241.172 91L229.858 102.314C229.077 103.095 229.077 104.361 229.858 105.142C230.639 105.923 231.905 105.923 232.686 105.142L245.414 92.4142ZM164 91V93H168V91V89H164V91ZM176 91V93H184V91V89H176V91ZM192 91V93H200V91V89H192V91ZM208 91V93H216V91V89H208V91ZM224 91V93H232V91V89H224V91ZM240 91V93H244V91V89H240V91ZM245.414 92.4142C246.195 91.6332 246.195 90.3668 245.414 89.5858L232.686 76.8579C231.905 76.0768 230.639 76.0768 229.858 76.8579C229.077 77.6389 229.077 78.9052 229.858 79.6863L241.172 91L229.858 102.314C229.077 103.095 229.077 104.361 229.858 105.142C230.639 105.923 231.905 105.923 232.686 105.142L245.414 92.4142ZM164 91V93H168V91V89H164V91ZM176 91V93H184V91V89H176V91ZM192 91V93H200V91V89H192V91ZM208 91V93H216V91V89H208V91ZM224 91V93H232V91V89H224V91ZM240 91V93H244V91V89H240V91Z" fill="#0090E3"/>
<rect x="268" width="140" height="140" rx="16" fill="#E7F6FF"/>
<path d="M355.896 24.3987L362.716 26.7706L371.467 19.8807L378.29 25.1197L377.263 37.4243L381.001 42.1759L390.472 41.445L392.908 51.0696L386.086 55.2123L385.112 64.5925L392.908 70.0026L390.472 79.5486L381.001 78.1155L375.853 85.5114L378.289 93.71L369.884 99.0711L364.401 93.7101C364.363 93.7305 359.566 96.3086 356.239 96.269C349.783 92.9796 348.93 90.4204 343.082 84.8162C337.235 79.212 325.509 64.4357 318.231 61.0599C309.849 57.1727 302.8 49.5305 302.759 49.4862L306.779 40.4707L315.306 42.1755L321.35 34.3785L317.377 25.1202L325.296 19.8812L332.411 26.7709L340.402 24.399L343.57 14.6426L353.072 14.642L355.896 24.3987ZM355.703 33.5686C343.497 32.3466 332.612 41.2508 331.389 53.4571C330.167 65.6634 339.072 76.5492 351.277 77.7715C363.483 78.9936 374.368 70.0893 375.59 57.883C376.812 45.6766 367.908 34.7908 355.703 33.5686Z" fill="white"/>
<path d="M317.743 74.3477L322.215 76.0664L329.094 71.5977L335.286 78.8154L331.158 85.0029L333.222 89.8154L341.133 91.1904V100.127L333.222 101.502L331.158 106.314L335.286 113.189L329.094 119.033L322.215 115.939L317.743 117.658L315.335 124.532H307.424L306.048 117.658L301.576 115.939L294.354 119.033L288.506 113.189L292.289 106.314L290.569 102.189L282.658 100.127V91.1904L289.882 89.8154L292.289 85.0029L287.474 78.8154L294.354 71.5977L300.545 76.0664L306.048 73.3164L307.424 66.7852H316.367L317.743 74.3477ZM313.458 80.2207C306.383 80.2207 300.648 85.9561 300.647 93.0312C300.647 100.106 306.383 105.842 313.458 105.842C320.533 105.842 326.268 100.106 326.268 93.0312C326.267 85.9562 320.533 80.2208 313.458 80.2207Z" fill="white"/>
<path fill-rule="evenodd" clip-rule="evenodd" d="M319.265 67.8523C319.074 66.4087 318.384 65.0773 317.315 64.089C316.245 63.1007 314.864 62.5177 313.41 62.4411H313.358C312.303 62.4037 311.247 62.4089 310.192 62.4567H310.174C308.729 62.5332 307.357 63.1106 306.292 64.0896C305.227 65.0687 304.537 66.3881 304.339 67.8211C304.235 68.5047 304.137 69.2246 304.051 69.8848C304.025 70.0786 303.944 70.2611 303.819 70.4111C303.693 70.5611 303.528 70.6724 303.341 70.732C302.12 71.1245 300.924 71.6209 299.765 72.2005L299.75 72.2083C299.577 72.297 299.383 72.3347 299.19 72.3173C298.996 72.2998 298.812 72.2277 298.658 72.1095L297.024 70.875C295.861 69.9837 294.422 69.5302 292.958 69.5938C291.494 69.6575 290.1 70.2344 289.019 71.2233C288.247 71.9458 287.501 72.6917 286.794 73.4714C285.821 74.5461 285.254 75.9272 285.192 77.3757C285.129 78.8242 285.575 80.249 286.451 81.4037C286.859 81.9625 287.301 82.5395 287.704 83.0671C287.948 83.3842 287.99 83.813 287.803 84.1717C287.215 85.3193 286.716 86.5106 286.311 87.735C286.311 87.7402 286.311 87.7454 286.306 87.7532C286.246 87.9374 286.136 88.101 285.987 88.2252C285.839 88.3494 285.658 88.429 285.466 88.4549L283.436 88.7356C281.993 88.9265 280.662 89.6165 279.673 90.686C278.685 91.7555 278.102 93.137 278.026 94.5912V94.6432C277.989 95.701 277.989 96.7562 278.041 97.8088V97.8244C278.118 99.269 278.695 100.642 279.674 101.707C280.653 102.771 281.972 103.462 283.405 103.659C284.089 103.763 284.809 103.862 285.469 103.948C285.864 104 286.197 104.278 286.316 104.657C286.709 105.879 287.205 107.074 287.784 108.234L287.792 108.249C287.881 108.422 287.919 108.616 287.901 108.809C287.884 109.003 287.812 109.187 287.693 109.341L286.459 110.976C285.568 112.138 285.114 113.578 285.178 115.041C285.242 116.505 285.818 117.9 286.807 118.981C287.53 119.753 288.276 120.498 289.055 121.205C290.13 122.179 291.511 122.745 292.959 122.808C294.408 122.871 295.832 122.425 296.987 121.548C297.546 121.14 298.123 120.699 298.65 120.296C298.806 120.176 298.993 120.103 299.188 120.085C299.384 120.068 299.581 120.107 299.755 120.197C300.893 120.784 302.091 121.281 303.318 121.689C303.506 121.746 303.673 121.856 303.8 122.006C303.928 122.156 304.009 122.339 304.035 122.534L304.321 124.563C304.512 126.007 305.202 127.338 306.271 128.326C307.339 129.314 308.72 129.897 310.174 129.975H310.226C311.284 130.011 312.339 130.011 313.391 129.959H313.407C314.851 129.882 316.224 129.305 317.289 128.326C318.354 127.347 319.044 126.028 319.241 124.595C319.345 123.911 319.444 123.191 319.53 122.531C319.556 122.337 319.636 122.155 319.762 122.005C319.888 121.855 320.053 121.743 320.239 121.684C321.461 121.291 322.656 120.795 323.816 120.215L323.831 120.207C324.004 120.119 324.198 120.081 324.391 120.098C324.584 120.116 324.769 120.188 324.923 120.306L326.557 121.541C327.72 122.432 329.159 122.886 330.623 122.822C332.087 122.758 333.481 122.181 334.562 121.192C335.334 120.47 336.08 119.724 336.787 118.944C337.76 117.87 338.327 116.488 338.389 115.04C338.452 113.592 338.006 112.167 337.13 111.012C336.722 110.453 336.28 109.876 335.877 109.349C335.757 109.193 335.684 109.006 335.667 108.811C335.649 108.615 335.688 108.418 335.778 108.244C336.366 107.106 336.862 105.907 337.27 104.681C337.27 104.676 337.27 104.67 337.275 104.663C337.335 104.478 337.445 104.315 337.594 104.19C337.742 104.066 337.923 103.987 338.115 103.961L340.144 103.68C341.588 103.489 342.919 102.799 343.907 101.73C344.896 100.66 345.479 99.2786 345.555 97.8244V97.7725C345.592 96.7147 345.592 95.6594 345.54 94.6068V94.5912C345.463 93.1467 344.886 91.774 343.907 90.7091C342.928 89.6443 341.608 88.9538 340.176 88.7564C339.489 88.6535 338.801 88.5573 338.112 88.4679C337.918 88.4418 337.736 88.3613 337.586 88.2358C337.436 88.1102 337.324 87.9446 337.265 87.7584C336.872 86.5368 336.376 85.3413 335.796 84.1821L335.789 84.1665C335.7 83.9939 335.662 83.7996 335.68 83.6064C335.697 83.4131 335.769 83.2288 335.887 83.0749L337.122 81.4401C338.013 80.2773 338.467 78.8379 338.403 77.3743C338.339 75.9106 337.762 74.516 336.774 73.435C336.053 72.6645 335.304 71.9223 334.526 71.2103C333.451 70.2371 332.07 69.6702 330.622 69.6075C329.173 69.5449 327.748 69.9905 326.594 70.8672C326.035 71.2752 325.458 71.7171 324.93 72.1199C324.775 72.2398 324.588 72.3128 324.393 72.3303C324.197 72.3478 324 72.3091 323.826 72.2187C322.678 71.6305 321.487 71.1318 320.263 70.7268C320.258 70.7268 320.252 70.7268 320.245 70.7216C320.06 70.6621 319.897 70.5517 319.773 70.4032C319.648 70.2546 319.569 70.074 319.543 69.8822L319.265 67.8523ZM314.109 68.5333L314.4 70.5995C314.725 72.962 316.372 74.9295 318.644 75.6676C319.6 75.9847 320.546 76.3772 321.458 76.8476H321.466C322.515 77.3837 323.693 77.6121 324.866 77.5063C326.039 77.4005 327.158 76.9649 328.093 76.2498L329.731 75.0127C329.921 74.8679 330.155 74.7939 330.394 74.8034C330.632 74.8129 330.86 74.9053 331.038 75.0646C331.701 75.6676 332.337 76.2992 332.951 76.9541C333.111 77.1352 333.204 77.3663 333.213 77.6081C333.222 77.8498 333.146 78.0872 333 78.2797L331.742 79.943C331.037 80.8752 330.609 81.9871 330.506 83.1514C330.404 84.3158 330.631 85.4854 331.163 86.5264C331.621 87.4398 332.008 88.3869 332.322 89.3594C332.684 90.4793 333.356 91.4739 334.26 92.2282C335.163 92.9824 336.262 93.4656 337.429 93.6218L339.463 93.9077C339.952 93.9701 340.321 94.3703 340.352 94.8641C340.394 95.7608 340.394 96.6575 340.365 97.5541C340.351 97.795 340.254 98.0234 340.09 98.2003C339.926 98.3771 339.705 98.4914 339.466 98.5236L337.4 98.8147C336.242 98.9745 335.152 99.4574 334.256 100.208C333.359 100.959 332.693 101.947 332.332 103.059C332.012 104.026 331.618 104.967 331.152 105.874V105.881C330.616 106.93 330.388 108.109 330.494 109.282C330.599 110.454 331.035 111.573 331.75 112.509L332.987 114.146C333.132 114.336 333.206 114.571 333.196 114.809C333.187 115.048 333.094 115.276 332.935 115.454C332.332 116.116 331.701 116.753 331.046 117.367C330.865 117.527 330.633 117.62 330.392 117.629C330.15 117.638 329.913 117.562 329.72 117.416L328.057 116.158C327.125 115.453 326.013 115.024 324.849 114.922C323.684 114.819 322.515 115.047 321.474 115.578C320.563 116.035 319.619 116.422 318.649 116.735H318.641C317.521 117.098 316.526 117.77 315.772 118.674C315.018 119.578 314.535 120.678 314.379 121.845L314.093 123.88C314.062 124.116 313.949 124.334 313.775 124.496C313.6 124.659 313.375 124.755 313.137 124.769C312.24 124.81 311.343 124.81 310.447 124.782C310.206 124.768 309.978 124.67 309.801 124.506C309.624 124.342 309.51 124.122 309.477 123.882L309.186 121.816C309.027 120.658 308.544 119.568 307.793 118.672C307.042 117.775 306.054 117.109 304.942 116.748C303.975 116.428 303.034 116.033 302.128 115.568H302.117C301.069 115.032 299.89 114.804 298.717 114.909C297.545 115.015 296.426 115.451 295.49 116.166L293.853 117.403C293.663 117.548 293.428 117.622 293.19 117.612C292.951 117.603 292.723 117.51 292.546 117.351C291.883 116.748 291.246 116.116 290.633 115.462C290.472 115.28 290.38 115.049 290.371 114.808C290.362 114.566 290.437 114.329 290.583 114.136L291.841 112.473C292.546 111.541 292.975 110.429 293.077 109.264C293.18 108.1 292.952 106.93 292.421 105.889C291.964 104.978 291.578 104.034 291.264 103.064V103.056C290.902 101.936 290.23 100.941 289.325 100.187C288.421 99.4326 287.322 98.9496 286.155 98.7939L284.12 98.508C283.884 98.4769 283.666 98.3644 283.503 98.1898C283.341 98.0152 283.245 97.7895 283.231 97.5515C283.19 96.6549 283.19 95.7582 283.218 94.8615C283.232 94.6207 283.33 94.3923 283.494 94.2154C283.658 94.0386 283.878 93.9242 284.117 93.8921L286.184 93.601C287.342 93.4412 288.431 92.9583 289.328 92.2076C290.224 91.457 290.891 90.4689 291.251 89.3568C291.568 88.4003 291.961 87.4543 292.431 86.542V86.5342C292.967 85.4857 293.196 84.3069 293.09 83.1341C292.984 81.9612 292.549 80.8423 291.834 79.9067L290.596 78.2693C290.452 78.0793 290.378 77.8449 290.387 77.6062C290.397 77.3676 290.489 77.1398 290.648 76.9619C291.251 76.2992 291.883 75.6624 292.538 75.0491C292.719 74.8887 292.95 74.796 293.192 74.787C293.433 74.778 293.671 74.8532 293.863 74.9997L295.527 76.2576C296.459 76.9628 297.57 77.3912 298.735 77.4937C299.899 77.5962 301.069 77.3687 302.11 76.8372C303.02 76.3805 303.965 75.9938 304.935 75.6806H304.942C306.063 75.3181 307.057 74.6458 307.812 73.7416C308.566 72.8374 309.049 71.7381 309.205 70.5709L309.49 68.5359C309.521 68.2995 309.634 68.0815 309.809 67.9192C309.983 67.7569 310.209 67.6607 310.447 67.647C311.343 67.6054 312.24 67.6054 313.137 67.634C313.377 67.6481 313.606 67.7456 313.783 67.9096C313.96 68.0737 314.076 68.2942 314.109 68.5333Z" fill="#0090E3"/>
<path fill-rule="evenodd" clip-rule="evenodd" d="M350.623 108.985C352.18 108.635 353.592 107.814 354.667 106.635C355.742 105.455 356.429 103.974 356.634 102.391C356.746 101.611 356.85 100.803 356.943 100.041C357.073 99.0097 357.806 98.1572 358.802 97.8687C359.839 97.5932 360.834 97.2709 361.816 96.907L361.827 96.9044C362.304 96.7253 362.824 96.6917 363.32 96.8078C363.816 96.9239 364.267 97.1845 364.615 97.5568L366.229 99.2514C367.509 100.616 369.236 101.475 371.096 101.672C372.956 101.87 374.825 101.393 376.362 100.327L377.919 99.1734C379.401 98.0471 380.43 96.4269 380.82 94.6068C381.209 92.7866 380.933 90.8871 380.042 89.2529C379.672 88.5543 379.294 87.8594 378.909 87.1684C378.664 86.7229 378.555 86.2153 378.596 85.7086C378.637 85.2018 378.825 84.7181 379.138 84.3173C379.814 83.4882 380.43 82.6383 381.009 81.7676L381.017 81.7598C381.298 81.3347 381.698 81.0023 382.167 80.8043C382.637 80.6064 383.154 80.5518 383.655 80.6474L385.957 81.0711C387.794 81.4233 389.697 81.1033 391.317 80.1696C392.938 79.2359 394.169 77.7506 394.786 75.9848L395.371 74.1369C395.907 72.3545 395.786 70.4391 395.032 68.7379C394.277 67.0366 392.938 65.6621 391.257 64.8635C390.547 64.5126 389.809 64.1669 389.115 63.8395C388.655 63.6239 388.268 63.2779 388.003 62.8445C387.738 62.4111 387.606 61.9094 387.623 61.4016C387.68 60.3333 387.68 59.2859 387.639 58.2385V58.2255C387.617 57.7168 387.746 57.2129 388.009 56.7772C388.273 56.3416 388.659 55.9937 389.12 55.7772L391.233 54.7662C392.926 53.9709 394.277 52.5938 395.039 50.8859C395.801 49.1779 395.925 47.2529 395.386 45.4616L394.77 43.6215C394.157 41.8642 392.934 40.3849 391.323 39.4522C389.712 38.5195 387.821 38.1951 385.991 38.5378C385.214 38.6729 384.414 38.8263 383.66 38.9718C383.161 39.0672 382.645 39.0141 382.175 38.8192C381.706 38.6243 381.304 38.296 381.02 37.875C380.445 36.99 379.829 36.1323 379.174 35.3046L379.167 35.2942C378.849 34.8959 378.657 34.4126 378.614 33.9052C378.571 33.3978 378.679 32.889 378.925 32.443L380.04 30.3846C380.943 28.746 381.226 26.8374 380.839 25.0071C380.451 23.1769 379.419 21.5469 377.929 20.4147L376.352 19.2867C374.822 18.2268 372.964 17.7499 371.113 17.9426C369.262 18.1352 367.541 18.9845 366.263 20.3367C365.712 20.9007 365.153 21.4959 364.628 22.0573C364.28 22.4274 363.831 22.6876 363.337 22.8058C362.843 22.924 362.325 22.8951 361.847 22.7226C360.864 22.3426 359.862 22.0104 358.846 21.7272L358.833 21.7246C358.342 21.5881 357.902 21.3095 357.569 20.9238C357.236 20.5381 357.025 20.0626 356.962 19.557L356.652 17.2387C356.42 15.3827 355.527 13.6722 354.139 12.4193C352.75 11.1664 350.957 10.4545 349.087 10.4136L347.148 10.4292C345.287 10.4696 343.503 11.1757 342.118 12.4193C340.734 13.663 339.84 15.3617 339.601 17.2075C339.489 17.9898 339.388 18.7981 339.292 19.5596C339.162 20.5914 338.429 21.4439 337.433 21.7324C336.397 22.0079 335.401 22.3302 334.419 22.694L334.408 22.6966C333.931 22.8758 333.411 22.9094 332.915 22.7933C332.419 22.6772 331.968 22.4165 331.62 22.0443L330.006 20.3497C328.726 18.9854 326.999 18.1263 325.139 17.9288C323.279 17.7313 321.41 18.2086 319.873 19.2737L318.316 20.4277C316.834 21.554 315.805 23.1742 315.415 24.9943C315.026 26.8145 315.302 28.714 316.193 30.3482C316.562 31.0474 316.954 31.7621 317.326 32.4326C317.571 32.8782 317.68 33.3857 317.639 33.8925C317.598 34.3993 317.41 34.883 317.097 35.2838C316.421 36.1129 315.805 36.9628 315.226 37.8335L315.218 37.8412C314.937 38.2663 314.537 38.5988 314.068 38.7968C313.598 38.9947 313.081 39.0493 312.58 38.9536L310.278 38.53C308.441 38.1778 306.538 38.4978 304.918 39.4315C303.297 40.3652 302.066 41.8505 301.449 43.6163L300.864 45.4642C300.328 47.2465 300.449 49.162 301.203 50.8632C301.958 52.5645 303.297 53.939 304.978 54.7376C305.688 55.0885 306.426 55.4342 307.12 55.7616C307.435 55.9083 307.718 56.1179 307.949 56.3776C308.411 56.8838 309.054 57.1872 309.738 57.2218C310.422 57.2564 311.092 57.0195 311.603 56.5625C312.113 56.1055 312.422 55.4654 312.463 54.7815C312.504 54.0976 312.274 53.4252 311.821 52.9105C311.124 52.1315 310.277 51.5004 309.332 51.0548L307.219 50.0463C306.658 49.7832 306.21 49.3271 305.957 48.7613C305.704 48.1954 305.663 47.5575 305.841 46.9639C306.01 46.4103 306.19 45.8593 306.364 45.3057C306.574 44.7239 306.986 44.2363 307.523 43.9301C308.061 43.6238 308.69 43.5191 309.298 43.6345H309.3C310.083 43.7853 310.894 43.9412 311.66 44.0686C313.16 44.346 314.709 44.1754 316.112 43.5782C317.516 42.9811 318.713 41.9837 319.553 40.7106C320.042 39.9777 320.567 39.2577 321.128 38.5664L321.149 38.543C322.107 37.3392 322.688 35.8787 322.818 34.3456C322.948 32.8124 322.621 31.2751 321.879 29.9272L320.762 27.8687C320.462 27.3258 320.368 26.6935 320.497 26.087C320.625 25.4806 320.967 24.9405 321.461 24.5653C321.923 24.2171 322.391 23.874 322.859 23.5309C323.371 23.1836 323.99 23.0305 324.605 23.0991C325.221 23.1677 325.791 23.4535 326.214 23.9052C326.76 24.4874 327.324 25.0878 327.867 25.644C328.919 26.7497 330.272 27.5214 331.76 27.8629C333.247 28.2045 334.802 28.1007 336.23 27.5646C337.054 27.2606 337.901 26.9851 338.764 26.7563L338.793 26.7485C340.275 26.3384 341.604 25.4986 342.61 24.3349C343.616 23.1713 344.256 21.7358 344.448 20.2094L344.755 17.8858C344.832 17.2711 345.127 16.7046 345.587 16.2896C346.047 15.8745 346.641 15.6385 347.26 15.6247C347.839 15.6143 348.419 15.6143 348.999 15.6091C350.275 15.6506 351.335 16.6149 351.496 17.8832C351.595 18.6733 351.699 19.4946 351.811 20.2639C352.011 21.7766 352.653 23.1966 353.655 24.347C354.658 25.4974 355.977 26.3272 357.448 26.7329C358.292 26.9721 359.139 27.2476 359.971 27.5698L360 27.5802C361.441 28.1195 363.009 28.2205 364.507 27.8704C366.006 27.5203 367.367 26.7348 368.42 25.6128L370.031 23.9156C370.455 23.4632 371.028 23.1784 371.644 23.113C372.26 23.0476 372.88 23.2061 373.389 23.5595C373.865 23.8896 374.333 24.2301 374.803 24.5679C375.293 24.9467 375.631 25.4882 375.756 26.0945C375.881 26.7008 375.786 27.332 375.486 27.8739C375.102 28.5731 374.704 29.2982 374.343 29.9869C373.617 31.3284 373.301 32.854 373.436 34.3735C373.57 35.8931 374.149 37.3395 375.099 38.5326C375.645 39.2239 376.167 39.9439 376.651 40.6924L376.669 40.7184C377.518 42.002 378.727 43.0057 380.145 43.6032C381.563 44.2008 383.126 44.3654 384.637 44.0763L386.937 43.6501C387.546 43.5336 388.176 43.6395 388.713 43.9487C389.25 44.2578 389.658 44.7495 389.864 45.3343C390.053 45.8827 390.233 46.4337 390.415 46.9847C390.587 47.5788 390.542 48.215 390.287 48.7787C390.032 49.3424 389.584 49.7965 389.024 50.0593C388.302 50.3998 387.553 50.7507 386.859 51.0964C385.483 51.7541 384.33 52.8026 383.545 54.111C382.761 55.4195 382.378 56.93 382.446 58.4542C382.48 59.3327 382.483 60.2242 382.433 61.1157L382.431 61.1442C382.363 62.6818 382.751 64.2051 383.547 65.5223C384.343 66.8395 385.511 67.8917 386.903 68.5463L389.016 69.5547C389.577 69.8179 390.025 70.274 390.278 70.8398C390.531 71.4057 390.572 72.0436 390.394 72.6372C390.225 73.1908 390.045 73.7418 389.871 74.2954C389.661 74.8771 389.249 75.3648 388.712 75.671C388.174 75.9773 387.545 76.082 386.937 75.9666C386.152 75.812 385.363 75.6673 384.575 75.5325C383.075 75.2551 381.526 75.4257 380.123 76.0228C378.719 76.62 377.522 77.6174 376.682 78.8905C376.193 79.6234 375.668 80.3434 375.107 81.0347L375.086 81.0581C374.128 82.2619 373.547 83.7223 373.417 85.2555C373.288 86.7886 373.614 88.326 374.356 89.6739L375.473 91.7324C375.773 92.2753 375.867 92.9076 375.738 93.5141C375.61 94.1205 375.268 94.6606 374.774 95.0357C374.312 95.384 373.844 95.7271 373.376 96.0702C372.864 96.4175 372.245 96.5706 371.63 96.502C371.014 96.4334 370.444 96.1476 370.021 95.6959C369.475 95.1137 368.911 94.5133 368.368 93.9571C367.316 92.8514 365.963 92.0797 364.476 91.7382C362.988 91.3966 361.434 91.5004 360.005 92.0364C359.181 92.3405 358.334 92.616 357.471 92.8447L357.442 92.8525C355.96 93.2627 354.631 94.1025 353.625 95.2662C352.619 96.4298 351.979 97.8653 351.787 99.3917L351.48 101.715C351.414 102.243 351.187 102.737 350.83 103.13C350.473 103.524 350.003 103.797 349.485 103.914C348.824 104.077 348.254 104.492 347.897 105.07C347.539 105.648 347.422 106.343 347.571 107.007C347.72 107.67 348.123 108.249 348.693 108.619C349.264 108.988 349.957 109.12 350.623 108.985ZM311.733 83.1919C304.56 83.1919 298.739 89.0138 298.739 96.1871C298.739 103.36 304.56 109.182 311.733 109.182C318.906 109.182 324.727 103.36 324.727 96.1871C324.727 89.0138 318.906 83.1919 311.733 83.1919ZM311.733 88.39C313.766 88.4425 315.698 89.287 317.117 90.7435C318.537 92.2 319.331 94.1534 319.331 96.1871C319.331 98.2209 318.537 100.174 317.117 101.631C315.698 103.087 313.766 103.932 311.733 103.984C309.7 103.932 307.768 103.087 306.349 101.631C304.929 100.174 304.135 98.2209 304.135 96.1871C304.135 94.1534 304.929 92.2 306.349 90.7435C307.768 89.287 309.7 88.4425 311.733 88.39Z" fill="#0090E3"/>
<path fill-rule="evenodd" clip-rule="evenodd" d="M330.034 61.7966C329.756 59.2547 330.015 56.6826 330.797 54.2478C331.578 51.813 332.864 49.5701 334.57 47.6654C336.276 45.7606 338.364 44.2367 340.698 43.1929C343.033 42.1491 345.561 41.6088 348.118 41.6073C358.157 41.6073 366.31 49.7604 366.31 59.8005C366.308 62.3567 365.769 64.8839 364.726 67.2176C363.683 69.5513 362.161 71.6393 360.257 73.3455C358.354 75.0517 356.113 76.338 353.68 77.1205C351.246 77.903 348.676 78.1643 346.135 77.8873C345.457 77.8278 344.783 78.0364 344.258 78.4682C343.732 78.9 343.397 79.5206 343.324 80.1969C343.25 80.8732 343.445 81.5512 343.866 82.0854C344.288 82.6196 344.901 82.9674 345.576 83.0542C346.41 83.1451 347.26 83.1919 348.118 83.1919C361.026 83.1919 371.508 72.71 371.508 59.8005C371.508 46.8911 361.026 36.4092 348.118 36.4092C335.209 36.4092 324.728 46.8911 324.728 59.8005C324.728 60.666 324.774 61.5211 324.865 62.3606C324.94 63.0461 325.284 63.6738 325.822 64.1057C326.359 64.5375 327.046 64.7381 327.732 64.6633C328.417 64.5886 329.045 64.2445 329.477 63.7069C329.909 63.1693 330.109 62.4821 330.034 61.7966Z" fill="#0090E3"/>
<path d="M296.506 159.252C295.695 159.252 294.975 159.411 294.346 159.73C293.726 160.04 293.202 160.492 292.773 161.084C292.354 161.676 292.035 162.392 291.816 163.23C291.598 164.069 291.488 165.012 291.488 166.061C291.488 167.473 291.661 168.681 292.008 169.684C292.363 170.677 292.91 171.438 293.648 171.967C294.387 172.486 295.339 172.746 296.506 172.746C297.317 172.746 298.128 172.655 298.939 172.473C299.76 172.29 300.648 172.031 301.605 171.693V175.248C300.721 175.613 299.851 175.872 298.994 176.027C298.137 176.191 297.176 176.273 296.109 176.273C294.049 176.273 292.354 175.85 291.023 175.002C289.702 174.145 288.722 172.951 288.084 171.42C287.446 169.88 287.127 168.084 287.127 166.033C287.127 164.52 287.332 163.135 287.742 161.877C288.152 160.619 288.754 159.53 289.547 158.609C290.34 157.689 291.32 156.978 292.486 156.477C293.653 155.975 294.993 155.725 296.506 155.725C297.499 155.725 298.493 155.852 299.486 156.107C300.489 156.354 301.446 156.695 302.357 157.133L300.99 160.578C300.243 160.223 299.491 159.913 298.734 159.648C297.978 159.384 297.235 159.252 296.506 159.252ZM304.613 166.84C304.613 164.589 304.891 162.674 305.447 161.098C306.003 159.521 306.887 158.263 308.1 157.324C309.312 156.376 310.902 155.734 312.871 155.396C313.855 155.223 314.854 155.082 315.865 154.973C316.886 154.854 317.943 154.722 319.037 154.576L319.516 158.227C319.042 158.281 318.527 158.34 317.971 158.404C317.415 158.468 316.854 158.536 316.289 158.609C315.724 158.673 315.177 158.742 314.648 158.814C314.12 158.878 313.641 158.942 313.213 159.006C312.283 159.152 311.508 159.38 310.889 159.689C310.269 159.999 309.795 160.492 309.467 161.166C309.139 161.84 308.938 162.811 308.865 164.078H309.07C309.289 163.732 309.599 163.381 310 163.025C310.401 162.661 310.898 162.36 311.49 162.123C312.083 161.877 312.766 161.754 313.541 161.754C314.762 161.754 315.82 162.005 316.713 162.506C317.606 163.007 318.294 163.755 318.777 164.748C319.27 165.732 319.516 166.963 319.516 168.439C319.516 170.171 319.197 171.62 318.559 172.787C317.93 173.945 317.055 174.815 315.934 175.398C314.812 175.982 313.514 176.273 312.037 176.273C310.907 176.273 309.886 176.068 308.975 175.658C308.063 175.248 307.279 174.642 306.623 173.84C305.976 173.038 305.479 172.053 305.133 170.887C304.786 169.711 304.613 168.362 304.613 166.84ZM312.283 172.896C312.876 172.896 313.391 172.769 313.828 172.514C314.275 172.249 314.621 171.821 314.867 171.229C315.122 170.627 315.25 169.82 315.25 168.809C315.25 167.587 315.045 166.621 314.635 165.91C314.234 165.19 313.546 164.83 312.57 164.83C311.978 164.83 311.422 164.976 310.902 165.268C310.392 165.55 309.959 165.878 309.604 166.252C309.248 166.617 309.002 166.926 308.865 167.182C308.865 167.902 308.92 168.604 309.029 169.287C309.148 169.962 309.335 170.572 309.59 171.119C309.845 171.666 310.191 172.099 310.629 172.418C311.076 172.737 311.627 172.896 312.283 172.896ZM336.852 168.33C336.852 169.606 336.678 170.736 336.332 171.721C335.995 172.705 335.498 173.539 334.842 174.223C334.195 174.897 333.411 175.408 332.49 175.754C331.579 176.1 330.549 176.273 329.4 176.273C328.325 176.273 327.336 176.1 326.434 175.754C325.54 175.408 324.761 174.897 324.096 174.223C323.439 173.539 322.929 172.705 322.564 171.721C322.209 170.736 322.031 169.606 322.031 168.33C322.031 166.635 322.332 165.199 322.934 164.023C323.535 162.848 324.392 161.954 325.504 161.344C326.616 160.733 327.942 160.428 329.482 160.428C330.913 160.428 332.18 160.733 333.283 161.344C334.395 161.954 335.266 162.848 335.895 164.023C336.533 165.199 336.852 166.635 336.852 168.33ZM326.283 168.33C326.283 169.333 326.393 170.176 326.611 170.859C326.83 171.543 327.172 172.058 327.637 172.404C328.102 172.751 328.708 172.924 329.455 172.924C330.193 172.924 330.79 172.751 331.246 172.404C331.711 172.058 332.048 171.543 332.258 170.859C332.477 170.176 332.586 169.333 332.586 168.33C332.586 167.318 332.477 166.48 332.258 165.814C332.048 165.14 331.711 164.634 331.246 164.297C330.781 163.96 330.175 163.791 329.428 163.791C328.325 163.791 327.523 164.169 327.021 164.926C326.529 165.682 326.283 166.817 326.283 168.33ZM348.801 160.428C350.523 160.428 351.913 161.098 352.971 162.438C354.037 163.777 354.57 165.742 354.57 168.33C354.57 170.062 354.32 171.52 353.818 172.705C353.317 173.881 352.624 174.77 351.74 175.371C350.856 175.973 349.84 176.273 348.691 176.273C347.953 176.273 347.32 176.182 346.791 176C346.262 175.809 345.811 175.567 345.438 175.275C345.064 174.975 344.74 174.656 344.467 174.318H344.248C344.321 174.683 344.376 175.057 344.412 175.439C344.449 175.822 344.467 176.196 344.467 176.561V182.727H340.297V160.715H343.688L344.275 162.697H344.467C344.74 162.287 345.073 161.909 345.465 161.562C345.857 161.216 346.326 160.943 346.873 160.742C347.429 160.533 348.072 160.428 348.801 160.428ZM347.461 163.764C346.732 163.764 346.153 163.914 345.725 164.215C345.296 164.516 344.982 164.967 344.781 165.568C344.59 166.17 344.485 166.931 344.467 167.852V168.303C344.467 169.287 344.558 170.121 344.74 170.805C344.932 171.488 345.246 172.008 345.684 172.363C346.13 172.719 346.741 172.896 347.516 172.896C348.154 172.896 348.678 172.719 349.088 172.363C349.498 172.008 349.803 171.488 350.004 170.805C350.214 170.112 350.318 169.269 350.318 168.275C350.318 166.781 350.086 165.655 349.621 164.898C349.156 164.142 348.436 163.764 347.461 163.764ZM368.037 160.715H372.631L366.574 168.043L373.164 176H368.434L362.186 168.248V176H358.016V160.715H362.186V168.139L368.037 160.715ZM381.613 160.4C383.664 160.4 385.236 160.847 386.33 161.74C387.424 162.633 387.971 163.992 387.971 165.814V176H385.059L384.252 173.922H384.143C383.705 174.469 383.258 174.915 382.803 175.262C382.347 175.608 381.823 175.863 381.23 176.027C380.638 176.191 379.918 176.273 379.07 176.273C378.168 176.273 377.357 176.1 376.637 175.754C375.926 175.408 375.365 174.879 374.955 174.168C374.545 173.448 374.34 172.536 374.34 171.434C374.34 169.811 374.91 168.617 376.049 167.852C377.188 167.077 378.897 166.648 381.176 166.566L383.828 166.484V165.814C383.828 165.012 383.618 164.424 383.199 164.051C382.78 163.677 382.197 163.49 381.449 163.49C380.711 163.49 379.986 163.595 379.275 163.805C378.564 164.014 377.854 164.279 377.143 164.598L375.762 161.781C376.573 161.353 377.48 161.016 378.482 160.77C379.494 160.523 380.538 160.4 381.613 160.4ZM383.828 168.918L382.215 168.973C380.866 169.009 379.927 169.251 379.398 169.697C378.879 170.144 378.619 170.732 378.619 171.461C378.619 172.099 378.806 172.555 379.18 172.828C379.553 173.092 380.041 173.225 380.643 173.225C381.536 173.225 382.288 172.96 382.898 172.432C383.518 171.903 383.828 171.151 383.828 170.176V168.918Z" fill="#181818"/>
<path d="M513.414 92.4142C514.195 91.6332 514.195 90.3668 513.414 89.5858L500.686 76.8579C499.905 76.0768 498.639 76.0768 497.858 76.8579C497.077 77.6389 497.077 78.9052 497.858 79.6863L509.172 91L497.858 102.314C497.077 103.095 497.077 104.361 497.858 105.142C498.639 105.923 499.905 105.923 500.686 105.142L513.414 92.4142ZM432 91V93H436V91V89H432V91ZM444 91V93H452V91V89H444V91ZM460 91V93H468V91V89H460V91ZM476 91V93H484V91V89H476V91ZM492 91V93H500V91V89H492V91ZM508 91V93H512V91V89H508V91ZM513.414 92.4142C514.195 91.6332 514.195 90.3668 513.414 89.5858L500.686 76.8579C499.905 76.0768 498.639 76.0768 497.858 76.8579C497.077 77.6389 497.077 78.9052 497.858 79.6863L509.172 91L497.858 102.314C497.077 103.095 497.077 104.361 497.858 105.142C498.639 105.923 499.905 105.923 500.686 105.142L513.414 92.4142ZM432 91V93H436V91V89H432V91ZM444 91V93H452V91V89H444V91ZM460 91V93H468V91V89H460V91ZM476 91V93H484V91V89H476V91ZM492 91V93H500V91V89H492V91ZM508 91V93H512V91V89H508V91Z" fill="#0090E3"/>
<rect x="536" width="140" height="140" rx="16" fill="#E7F6FF"/>
<rect x="547.453" y="29.1626" width="72.333" height="51.1791" rx="8" fill="white"/>
<path d="M641.19 62.7524C641.19 58.3342 644.772 54.7524 649.19 54.7524H656.332C658.738 54.7524 661.017 55.8354 662.536 57.7013L665.35 61.1581C666.512 62.5851 667.147 64.3691 667.147 66.2093V67.913C667.147 72.3313 663.565 75.913 659.147 75.913H649.19C644.772 75.913 641.19 72.3313 641.19 67.913V62.7524Z" fill="white"/>
<ellipse cx="572.794" cy="102.487" rx="9.34916" ry="9.35002" fill="white"/>
<ellipse cx="641.19" cy="102.487" rx="9.34916" ry="9.35002" fill="white"/>
<path d="M652.828 44.6708C651.015 42.7034 648.451 41.5755 645.793 41.5755H626.95V34.9788C626.95 30.5796 623.38 27 618.991 27H552.959C548.571 27 545 30.5796 545 34.9788L545.002 94.768C545.002 98.8645 548.327 102.197 552.412 102.197H558.773C559.527 108.829 565.151 114 571.962 114C578.774 114 584.398 108.829 585.152 102.197H627.847C628.601 108.829 634.225 114 641.037 114C647.848 114 653.472 108.829 654.226 102.197H658.438C663.711 102.197 668 97.8961 668 92.6094V64.9163C668 62.5156 667.105 60.212 665.473 58.4252L652.828 44.6708ZM664.273 77.4724H642.996C640.998 77.4724 639.372 75.8386 639.372 73.8303V59.1365C639.372 57.1282 640.998 55.4944 642.996 55.4944H657.712L662.726 60.9433C663.723 62.0365 664.273 63.4471 664.273 64.9161V77.4724ZM571.962 110.272C566.694 110.272 562.407 105.969 562.407 100.681C562.407 95.3915 566.694 91.0885 571.962 91.0885C577.23 91.0885 581.517 95.3912 581.517 100.681C581.517 105.969 577.23 110.272 571.962 110.272ZM641.037 110.272C635.768 110.272 631.482 105.969 631.482 100.681C631.482 95.3915 635.768 91.0885 641.037 91.0885C646.305 91.0885 650.591 95.3912 650.591 100.681C650.591 105.969 646.305 110.272 641.037 110.272ZM658.438 98.4694H654.12C653.064 92.1763 647.607 87.361 641.037 87.361C634.466 87.361 629.009 92.1761 627.953 98.4694H585.045C583.99 92.1763 578.533 87.361 571.962 87.361C565.391 87.361 559.934 92.1761 558.879 98.4694H552.412C550.382 98.4694 548.73 96.8088 548.73 94.7677L548.727 34.9785C548.727 32.6341 550.626 30.7272 552.959 30.7272H618.991C621.324 30.7272 623.223 32.6341 623.223 34.9785V81.4693C623.223 83.8137 621.324 85.7211 618.991 85.7211H593.429C592.935 85.7211 592.461 85.9175 592.111 86.267C591.762 86.6166 591.565 87.0906 591.565 87.585C591.565 88.0793 591.762 88.5534 592.111 88.9029C592.461 89.2524 592.935 89.4488 593.429 89.4488H618.991C623.379 89.4488 626.95 85.8692 626.95 81.4693V45.3029H645.793C647.413 45.3029 648.978 45.9928 650.084 47.1946L654.288 51.7667H642.996C638.943 51.7667 635.645 55.0727 635.645 59.1365V73.8303C635.645 77.8941 638.943 81.2001 642.996 81.2001H664.273V92.6094C664.273 95.8403 661.656 98.4694 658.438 98.4694Z" fill="#0090E3"/>
<path d="M642.129 98.8174H639.945C639.451 98.8174 638.976 99.0137 638.627 99.3632C638.277 99.7128 638.081 100.187 638.081 100.681C638.081 101.175 638.277 101.649 638.627 101.999C638.976 102.348 639.451 102.545 639.945 102.545H642.129C642.623 102.545 643.097 102.348 643.447 101.999C643.796 101.649 643.993 101.175 643.993 100.681C643.993 100.187 643.796 99.7128 643.447 99.3632C643.097 99.0137 642.623 98.8174 642.129 98.8174ZM573.054 98.8174H570.87C570.376 98.8174 569.902 99.0137 569.552 99.3632C569.203 99.7128 569.007 100.187 569.007 100.681C569.007 101.175 569.203 101.649 569.552 101.999C569.902 102.348 570.376 102.545 570.87 102.545H573.054C573.549 102.545 574.023 102.348 574.372 101.999C574.722 101.649 574.918 101.175 574.918 100.681C574.918 100.187 574.722 99.7128 574.372 99.3632C574.023 99.0137 573.549 98.8174 573.054 98.8174Z" fill="#0090E3"/>
<path d="M559.158 165.979C559.158 167.519 558.967 168.923 558.584 170.189C558.201 171.447 557.618 172.532 556.834 173.443C556.059 174.355 555.075 175.057 553.881 175.549C552.687 176.032 551.274 176.273 549.643 176.273C548.011 176.273 546.598 176.032 545.404 175.549C544.21 175.057 543.221 174.355 542.438 173.443C541.663 172.532 541.084 171.443 540.701 170.176C540.318 168.909 540.127 167.501 540.127 165.951C540.127 163.882 540.464 162.082 541.139 160.551C541.822 159.01 542.87 157.816 544.283 156.969C545.696 156.121 547.492 155.697 549.67 155.697C551.839 155.697 553.621 156.121 555.016 156.969C556.419 157.816 557.458 159.01 558.133 160.551C558.816 162.091 559.158 163.9 559.158 165.979ZM544.57 165.979C544.57 167.373 544.743 168.576 545.09 169.588C545.445 170.59 545.997 171.365 546.744 171.912C547.492 172.45 548.458 172.719 549.643 172.719C550.846 172.719 551.821 172.45 552.568 171.912C553.316 171.365 553.858 170.59 554.195 169.588C554.542 168.576 554.715 167.373 554.715 165.979C554.715 163.882 554.323 162.232 553.539 161.029C552.755 159.826 551.465 159.225 549.67 159.225C548.476 159.225 547.501 159.498 546.744 160.045C545.997 160.583 545.445 161.357 545.09 162.369C544.743 163.372 544.57 164.575 544.57 165.979ZM575.619 163.846H570.615V176H566.445V163.846H561.428V160.715H575.619V163.846ZM589.031 160.715V163.846H582.646V176H578.477V160.715H589.031ZM600.379 160.428C602.102 160.428 603.492 161.098 604.549 162.438C605.615 163.777 606.148 165.742 606.148 168.33C606.148 170.062 605.898 171.52 605.396 172.705C604.895 173.881 604.202 174.77 603.318 175.371C602.434 175.973 601.418 176.273 600.27 176.273C599.531 176.273 598.898 176.182 598.369 176C597.84 175.809 597.389 175.567 597.016 175.275C596.642 174.975 596.318 174.656 596.045 174.318H595.826C595.899 174.683 595.954 175.057 595.99 175.439C596.027 175.822 596.045 176.196 596.045 176.561V182.727H591.875V160.715H595.266L595.854 162.697H596.045C596.318 162.287 596.651 161.909 597.043 161.562C597.435 161.216 597.904 160.943 598.451 160.742C599.007 160.533 599.65 160.428 600.379 160.428ZM599.039 163.764C598.31 163.764 597.731 163.914 597.303 164.215C596.874 164.516 596.56 164.967 596.359 165.568C596.168 166.17 596.063 166.931 596.045 167.852V168.303C596.045 169.287 596.136 170.121 596.318 170.805C596.51 171.488 596.824 172.008 597.262 172.363C597.708 172.719 598.319 172.896 599.094 172.896C599.732 172.896 600.256 172.719 600.666 172.363C601.076 172.008 601.382 171.488 601.582 170.805C601.792 170.112 601.896 169.269 601.896 168.275C601.896 166.781 601.664 165.655 601.199 164.898C600.734 164.142 600.014 163.764 599.039 163.764ZM607.406 160.715H611.973L614.857 169.314C614.949 169.588 615.026 169.866 615.09 170.148C615.154 170.431 615.208 170.723 615.254 171.023C615.299 171.324 615.336 171.639 615.363 171.967H615.445C615.5 171.475 615.573 171.014 615.664 170.586C615.764 170.158 615.887 169.734 616.033 169.314L618.863 160.715H623.334L616.867 177.955C616.475 179.012 615.965 179.892 615.336 180.594C614.707 181.305 613.982 181.838 613.162 182.193C612.351 182.549 611.458 182.727 610.482 182.727C610.008 182.727 609.598 182.699 609.252 182.645C608.906 182.599 608.609 182.549 608.363 182.494V179.186C608.555 179.231 608.796 179.272 609.088 179.309C609.38 179.345 609.685 179.363 610.004 179.363C610.587 179.363 611.089 179.24 611.508 178.994C611.927 178.748 612.278 178.415 612.561 177.996C612.843 177.586 613.066 177.135 613.23 176.643L613.477 175.891L607.406 160.715ZM631.1 160.428C632.202 160.428 633.232 160.574 634.189 160.865C635.146 161.148 635.921 161.59 636.514 162.191C637.106 162.784 637.402 163.549 637.402 164.488C637.402 165.409 637.124 166.143 636.568 166.689C636.012 167.227 635.274 167.615 634.354 167.852V167.988C635.001 168.143 635.584 168.353 636.104 168.617C636.632 168.882 637.051 169.246 637.361 169.711C637.671 170.176 637.826 170.786 637.826 171.543C637.826 172.391 637.557 173.174 637.02 173.895C636.482 174.605 635.657 175.18 634.545 175.617C633.442 176.055 632.025 176.273 630.293 176.273C629.473 176.273 628.698 176.237 627.969 176.164C627.249 176.091 626.588 175.986 625.986 175.85C625.385 175.704 624.861 175.531 624.414 175.33V171.885C625.043 172.176 625.818 172.445 626.738 172.691C627.668 172.938 628.657 173.061 629.705 173.061C630.462 173.061 631.145 173.006 631.756 172.896C632.376 172.787 632.863 172.605 633.219 172.35C633.583 172.085 633.766 171.734 633.766 171.297C633.766 170.887 633.606 170.549 633.287 170.285C632.977 170.012 632.499 169.811 631.852 169.684C631.214 169.547 630.402 169.479 629.418 169.479H627.805V166.594H629.336C630.721 166.594 631.792 166.48 632.549 166.252C633.305 166.024 633.684 165.605 633.684 164.994C633.684 164.502 633.442 164.133 632.959 163.887C632.476 163.641 631.678 163.518 630.566 163.518C629.846 163.518 629.053 163.604 628.188 163.777C627.322 163.941 626.51 164.178 625.754 164.488L624.523 161.576C625.408 161.239 626.365 160.965 627.395 160.756C628.434 160.537 629.669 160.428 631.1 160.428ZM651.115 160.715H655.709L649.652 168.043L656.242 176H651.512L645.264 168.248V176H641.094V160.715H645.264V168.139L651.115 160.715ZM664.691 160.4C666.742 160.4 668.314 160.847 669.408 161.74C670.502 162.633 671.049 163.992 671.049 165.814V176H668.137L667.33 173.922H667.221C666.783 174.469 666.337 174.915 665.881 175.262C665.425 175.608 664.901 175.863 664.309 176.027C663.716 176.191 662.996 176.273 662.148 176.273C661.246 176.273 660.435 176.1 659.715 175.754C659.004 175.408 658.443 174.879 658.033 174.168C657.623 173.448 657.418 172.536 657.418 171.434C657.418 169.811 657.988 168.617 659.127 167.852C660.266 167.077 661.975 166.648 664.254 166.566L666.906 166.484V165.814C666.906 165.012 666.697 164.424 666.277 164.051C665.858 163.677 665.275 163.49 664.527 163.49C663.789 163.49 663.064 163.595 662.354 163.805C661.643 164.014 660.932 164.279 660.221 164.598L658.84 161.781C659.651 161.353 660.558 161.016 661.561 160.77C662.572 160.523 663.616 160.4 664.691 160.4ZM666.906 168.918L665.293 168.973C663.944 169.009 663.005 169.251 662.477 169.697C661.957 170.144 661.697 170.732 661.697 171.461C661.697 172.099 661.884 172.555 662.258 172.828C662.632 173.092 663.119 173.225 663.721 173.225C664.614 173.225 665.366 172.96 665.977 172.432C666.596 171.903 666.906 171.151 666.906 170.176V168.918Z" fill="#181818"/>
</svg>
